
        <svg xmlns="http://www.w3.org/2000/svg" xmlns:xlink="http://www.w3.org/1999/xlink" version="1.1" width="250" height="200" viewBox="0 0 3192.8376653245778 964.1883266228905">
			
			<g transform="scale(9.641883266228906) translate(10, 10)">
				<defs id="SvgjsDefs1481"/><g id="SvgjsG1482" featureKey="nRdZyp-0" transform="matrix(0.0014425397941647856,0,0,0.0014425397941647856,-15.541858940739084,-3.345643522777971)" fill="#000"><defs xmlns="http://www.w3.org/2000/svg"/><g xmlns="http://www.w3.org/2000/svg"><path class="fil0" d="M11364 26256c-279,40 -541,-136 -584,-391 -43,-256 148,-495 427,-534 2140,-307 4332,-205 6312,333 1791,486 3411,1328 4671,2544 591,570 1102,1222 1513,1956 1640,-783 3305,-1275 4916,-1467 2037,-243 3988,-6 5700,727 921,394 1771,930 2525,1610 -382,-2756 647,-5588 1679,-8426 1096,-3013 2194,-6033 1488,-8849 -592,-14 -1202,-58 -1812,-102 -75,-5 -151,-11 -226,-16 -19,574 -222,1055 -542,1425 -301,347 -704,592 -1156,721 -444,126 -934,141 -1419,29 -643,-147 -1277,-514 -1776,-1131 -353,228 -719,455 -1137,700 -1024,600 -1919,606 -2586,278 -321,-158 -582,-393 -775,-678 -184,-273 -304,-591 -351,-928 -103,-738 144,-1580 833,-2233 -1111,-2058 -283,-4279 927,-6048 1205,-1762 2827,-3098 3190,-3308 23,-13 42,-24 57,-31l87 -43 98 -10c1890,-202 3828,91 5590,571 1727,471 3288,1124 4462,1663 4651,1681 4713,5157 4776,8675 20,1130 40,2265 226,3323 560,3190 1202,6386 1846,9587 420,2091 841,4184 1216,6148 483,2536 771,5047 509,7490 -260,2419 -1059,4758 -2735,6966 29,1965 -1403,2647 -3310,2733 -1789,80 -4002,-406 -5660,-770 -613,-135 -1147,-252 -1553,-315l35 -192c-2724,3160 -8854,3680 -14668,4173 -6328,537 -12256,1039 -12297,4876 -2,259 -233,467 -516,465 -283,-2 -510,-213 -508,-472 50,-4684 6425,-5224 13228,-5801 6394,-542 13191,-1119 14800,-5213 95,-243 388,-370 654,-283 266,87 404,355 309,599 -138,352 -308,681 -504,988 356,68 784,162 1256,266 1596,351 3726,819 5375,745 1114,-50 1998,-372 2256,-1222 55,-231 80,-452 74,-663 0,-10 -1,-20 -1,-31l-4 -73c-7,-89 -19,-177 -37,-263 -78,-373 -266,-727 -570,-1067 -180,-201 -147,-497 72,-661 219,-164 543,-135 722,66 232,259 415,528 550,808 1198,-1834 1797,-3761 2011,-5748 251,-2338 -30,-4772 -500,-7241 -407,-2136 -810,-4137 -1212,-6137 -644,-3203 -1287,-6403 -1850,-9609 -196,-1120 -217,-2290 -238,-3456 -57,-3207 -113,-6375 -4147,-7823l-19 -7 -25 -11c-1134,-522 -2645,-1156 -4316,-1611 -1609,-439 -3364,-710 -5061,-550 -418,283 -1748,1434 -2797,2967 -1016,1485 -1737,3311 -968,4958 684,-407 1525,-803 2431,-1230l148 -70c-116,-110 -236,-204 -364,-279 -249,-146 -540,-226 -904,-218 -283,6 -517,-199 -524,-457 -7,-259 217,-473 500,-479 587,-13 1066,120 1482,364 255,150 480,339 689,561 204,-207 398,-496 596,-791l36 -53c-13,-24 -23,-49 -32,-76 -168,-534 -138,-1223 294,-1914 322,-515 871,-1033 1735,-1483 246,-128 559,-49 698,176 140,225 53,511 -193,639 -685,357 -1110,750 -1349,1134 -67,106 -119,212 -158,315 538,-444 1238,-660 2295,-319 267,85 408,352 315,597 -93,244 -385,373 -652,288 -1084,-349 -1615,441 -2118,1188 -374,556 -737,1095 -1313,1372l-5 3 -3 1c-386,184 -545,259 -703,334 -1058,498 -2024,954 -2704,1412 -676,456 -923,1125 -844,1695 28,205 99,395 206,554 99,146 230,266 389,344 358,176 884,146 1546,-242 837,-491 1463,-911 2214,-1416 126,-85 256,-172 391,-263l72 -48 86 -23c1235,-334 2681,-229 4126,-124 2577,187 5155,373 5803,-2304 61,-252 334,-412 610,-356 276,56 450,306 389,558 -569,2351 -2136,3012 -4024,3125 674,3005 -446,6084 -1563,9158 -1260,3466 -2517,6923 -1018,10067 33,52 67,105 99,158 814,1325 1393,2948 1667,4875 37,257 -161,492 -441,525 -280,33 -537,-147 -574,-404 -256,-1801 -793,-3311 -1547,-4537 -34,-55 -68,-109 -103,-163l-1 -1c-949,-1475 -2220,-2520 -3692,-3150 -1532,-656 -3290,-866 -5135,-646 -1509,180 -3077,648 -4630,1397 256,611 449,1270 571,1980 318,1856 144,4052 -684,6601 -80,248 -365,391 -636,318 -272,-73 -427,-334 -347,-582 783,-2412 951,-4470 656,-6194 -133,-775 -359,-1482 -666,-2123 -8,-15 -15,-30 -22,-45 -396,-814 -920,-1521 -1546,-2124 -1132,-1092 -2595,-1850 -4218,-2291 -1837,-499 -3874,-593 -5867,-308zm2040 1882c-177,12 -330,-109 -344,-271 -13,-162 119,-302 296,-314 1100,-78 2329,-1 3399,314 915,270 1716,714 2233,1385 102,132 67,315 -78,409 -145,93 -345,61 -446,-71 -429,-557 -1114,-932 -1904,-1165 -984,-290 -2127,-359 -3156,-286zm28698 -13181c-21,-161 105,-307 281,-326 176,-19 335,96 356,257 81,627 155,1235 173,1853 18,619 -21,1230 -168,1845 -37,158 -208,259 -381,225 -173,-34 -283,-190 -246,-349 136,-570 173,-1135 156,-1708 -17,-574 -90,-1175 -171,-1797zm-5151 -1379c-879,-41 -1716,-29 -2423,146l-317 213c-102,68 -201,135 -299,201 346,423 770,672 1194,769 300,69 598,61 865,-15 259,-74 488,-212 658,-408 195,-224 316,-529 321,-905zm-3224 -10315c1,0 7,-4 4,-2l-4 2zm-9564 40918c1008,982 2496,1874 4265,2173 1446,244 3087,88 4817,-746 250,-121 560,-33 692,196 132,229 36,513 -215,633 -1956,943 -3824,1117 -5479,838 -2056,-347 -3773,-1397 -4911,-2537 -533,325 -1095,607 -1691,852 -1958,803 -4275,1188 -7162,1315 -283,12 -522,-188 -536,-446 -13,-259 205,-478 488,-490 2761,-122 4960,-483 6792,-1234 1810,-742 3277,-1874 4596,-3545 165,-210 485,-258 714,-106 229,151 282,444 116,654 -769,974 -1587,1781 -2488,2444z" style="fill: #111111; fill-rule: nonzero;"/></g></g><g id="SvgjsG1483" featureKey="Q4qmbg-0" transform="matrix(3.381147461692292,0,0,3.381147461692292,83.5122941172562,-10.311474616922915)" fill="#000"><path d="M3.26 13.04 l-2.2 -1.26 c1.1 -1.24 2.58 -1.82 4.12 -1.82 c2.96 0 4.16 1.62 4.16 3.14 l0 6.9 l-2.96 0 l0 -0.7 c-0.46 0.48 -1.28 0.84 -2.2 0.84 c-2.7 0 -3.74 -1.2 -3.74 -3.04 c0 -2.08 1.68 -3.48 4.4 -3.48 l1.54 0 c0 -0.74 -0.56 -1.22 -1.4 -1.22 c-0.86 0 -1.28 0.16 -1.72 0.64 z M6.38 16.740000000000002 l0 -0.88 l-1.74 0 c-0.78 0 -1.36 0.54 -1.24 1.3 c0.08 0.54 0.56 0.76 1.24 0.76 c1.3 0 1.74 -0.74 1.74 -1.18 z M13.983895833333332 5.119999999999999 l0 14.88 l-2.98 0 l0 -14.88 l2.98 0 z M25.967791666666663 15.08 c0 2.92 -1.94 5.08 -4.84 5.08 c-0.6 0 -1.78 -0.36 -2.24 -0.82 l0 5.3 l-2.96 0 l0 -14.52 l2.96 0 l0 0.7 c0.42 -0.5 1.18 -0.84 2.04 -0.84 c2.9 0 5.04 2.18 5.04 5.1 z M22.987791666666666 15.08 c0 -1.58 -1.02 -2.86 -2.26 -2.86 c-0.76 0 -1.5 0.56 -1.9 1.36 c-0.18 0.4 -0.32 0.96 -0.32 1.5 c0 0.56 0.12 1.06 0.32 1.48 c0.42 0.82 1.12 1.36 1.9 1.36 c1.24 0 2.26 -1.28 2.26 -2.84 z M36.651687499999994 14.36 l0 5.64 l-2.96 0 l0 -5.64 c0 -1.52 -0.4 -2.16 -1.56 -2.16 c-1.2 0 -1.9 0.64 -1.9 2.16 l0 5.64 l-2.96 0 l0 -14.52 l2.96 0 l0 5.74 c0.38 -1.1 1.82 -1.24 2.68 -1.24 c2.76 0 3.74 1.34 3.74 4.38 z M40.655583333333325 13.04 l-2.2 -1.26 c1.1 -1.24 2.58 -1.82 4.12 -1.82 c2.96 0 4.16 1.62 4.16 3.14 l0 6.9 l-2.96 0 l0 -0.7 c-0.46 0.48 -1.28 0.84 -2.2 0.84 c-2.7 0 -3.74 -1.2 -3.74 -3.04 c0 -2.08 1.68 -3.48 4.4 -3.48 l1.54 0 c0 -0.74 -0.56 -1.22 -1.4 -1.22 c-0.86 0 -1.28 0.16 -1.72 0.64 z M43.77558333333333 16.740000000000002 l0 -0.88 l-1.74 0 c-0.78 0 -1.36 0.54 -1.24 1.3 c0.08 0.54 0.56 0.76 1.24 0.76 c1.3 0 1.74 -0.74 1.74 -1.18 z M56.659479166666664 13.42 l0 2.52 l-7.8 0 l0 -2.52 l7.8 0 z M67.323375 10.12 l-3.5 4.94 l3.5 4.94 l-3.4 0 l-1.68 -2.72 l-1.68 2.72 l-3.42 0 l3.52 -4.94 l-3.52 -4.94 l3.4 0 l1.68 2.7 c0.6 -0.88 1.12 -1.84 1.7 -2.7 l3.4 0 z"/></g>
			</g>
		</svg>
	